<svg xmlns="http://www.w3.org/2000/svg" width="384" height="384" viewBox="0 0 100 100">
  <rect width="100" height="100" fill="#6C5CE7" rx="20"/>
  <g stroke="#FFFFFF" stroke-width="2.5" fill="none" stroke-linecap="round" opacity="0.9">
    <path d="M35 25 Q32 20 35 15 Q38 10 35 5"/>
    <path d="M50 22 Q47 17 50 12 Q53 7 50 2"/>
    <path d="M65 25 Q62 20 65 15 Q68 10 65 5"/>
  </g>
  <g fill="#FFFFFF">
    <rect x="12" y="43" width="10" height="4" rx="2"/>
    <rect x="78" y="43" width="10" height="4" rx="2"/>
  </g>
  <path d="M20 38 L80 38 L80 42 L78 72 C77 78 72 82 65 82 L35 82 C28 82 23 78 22 72 L20 42 Z" fill="#FFFFFF"/>
  <rect x="18" y="35" width="64" height="8" rx="2" fill="#FFFFFF"/>
  <circle cx="35" cy="55" r="6" fill="#FFD93D"/>
  <circle cx="52" cy="50" r="6" fill="#FF6B6B"/>
  <circle cx="67" cy="55" r="5" fill="#00D2D3"/>
  <circle cx="42" cy="68" r="5" fill="#FF9F43"/>
  <circle cx="58" cy="65" r="4" fill="#A29BFE"/>
</svg>
